<?xml version="1.0" encoding="utf-8"?>
<!-- Generator: Adobe Illustrator 24.1.0, SVG Export Plug-In . SVG Version: 6.00 Build 0)  -->
<svg version="1.1" id="Layer_1" focusable="false" xmlns="http://www.w3.org/2000/svg" xmlns:xlink="http://www.w3.org/1999/xlink"
     x="0px" y="0px" viewBox="0 0 640 512" style="enable-background:new 0 0 640 512;" xml:space="preserve">
<style type="text/css">
	.st0{opacity:0.4;fill:#45438B;enable-background:new    ;}
	.st1{fill:#45438B;}
</style>
    <g>
	<path class="st0" d="M638.4,387c-1-6-6.2-10.3-12.2-10.3h-16.5c-3.6-10-9-19.3-15.9-27.4L602,335c3-5.2,1.8-11.8-2.8-15.7
		c-9.6-8-20.4-14.3-32.1-18.6c-5.7-2.2-12.1,0.1-15.1,5.4l-8.2,14.3c-10.5-1.9-21.2-1.9-31.7,0l-8.2-14.3c-3-5.3-9.4-7.6-15.1-5.4
		c-11.7,4.4-22.5,10.7-32.1,18.6c-4.7,3.8-5.8,10.5-2.8,15.7l8.2,14.3c-6.9,8.1-12.3,17.4-15.9,27.4h-16.5
		c-6.1,0-11.2,4.4-12.2,10.4c-2.1,12.3-2.1,24.8,0,37.1c1,6,6.2,10.3,12.2,10.3h16.5c3.6,10,9,19.3,15.9,27.4l-8.2,14.3
		c-3,5.2-1.8,11.8,2.8,15.7c9.6,8,20.4,14.3,32.1,18.6c5.7,2.2,12.1-0.1,15.1-5.4l8.2-14.3c10.5,1.9,21.2,1.9,31.7,0l8.2,14.3
		c3,5.3,9.4,7.6,15.1,5.4c11.7-4.4,22.5-10.7,32.1-18.6c4.7-3.8,5.8-10.5,2.8-15.7l-8.2-14.3c6.9-8.1,12.3-17.4,15.9-27.4h16.5
		c6.1,0,11.2-4.4,12.2-10.4C640.5,411.8,640.5,399.3,638.4,387L638.4,387z M501.6,431.9c-29.6-38.5,14.3-82.4,52.8-52.8
		C584,417.6,540.1,461.5,501.6,431.9L501.6,431.9z M638.4,88.1c-1-6-6.2-10.3-12.2-10.3h-16.5c-3.6-10-9-19.3-15.9-27.4l8.2-14.3
		c3-5.2,1.8-11.8-2.8-15.7c-9.6-8-20.4-14.3-32.1-18.6C561.4-0.4,555,1.9,552,7.2l-8.2,14.3c-10.5-1.9-21.2-1.9-31.7,0l-8.2-14.3
		c-3-5.3-9.4-7.6-15.1-5.4c-11.7,4.4-22.5,10.7-32.1,18.6c-4.7,3.8-5.8,10.5-2.8,15.7l8.2,14.3c-6.9,8.1-12.3,17.4-15.9,27.4h-16.5
		c-6.1,0-11.2,4.4-12.2,10.4c-2.1,12.3-2.1,24.8,0,37.1c1,6,6.2,10.3,12.2,10.3h16.5c3.6,10,9,19.3,15.9,27.4l-8.2,14.3
		c-3,5.2-1.8,11.8,2.8,15.7c9.6,8,20.4,14.3,32.1,18.6c5.7,2.2,12.1-0.1,15.1-5.4l8.2-14.3c10.5,1.9,21.2,1.9,31.7,0l8.2,14.3
		c3,5.3,9.4,7.6,15.1,5.4c11.7-4.4,22.5-10.7,32.1-18.6c4.7-3.8,5.8-10.5,2.8-15.7l-8.2-14.3c6.9-8.1,12.3-17.4,15.9-27.4h16.5
		c6.1,0,11.2-4.4,12.2-10.4C640.5,112.9,640.5,100.4,638.4,88.1L638.4,88.1z M501.6,133.1c-29.6-38.5,14.3-82.5,52.8-52.8
		C584,118.8,540.1,162.7,501.6,133.1L501.6,133.1z"/>
        <path class="st1" d="M420,303.8L386.3,287c3.9-21,3.9-42.5,0-63.5l33.7-16.8c10.1-5.9,14-18.2,10-29.1
		c-8.9-24.2-25.9-46.4-42.1-65.8c-7.5-8.9-20.3-11.1-30.3-5.3l-29.1,16.8c-16.2-13.8-34.8-24.6-54.9-31.7V58
		c0-11.7-8.5-21.7-20-23.6c-25.2-4.2-50.9-4.2-76,0.1C166.2,36.5,158,46.4,158,58v33.7c-20.1,7.1-38.7,17.8-54.9,31.7L74,106.6
		c-10-5.8-22.8-3.6-30.3,5.3c-16.2,19.4-33.3,41.6-42.2,65.8c-4.1,10.9,0.4,23.2,10.5,29l33.3,16.9c-3.9,21-3.9,42.4,0,63.4
		L12,303.8c-10.1,5.9-14.5,18.1-10.5,29.1c8.9,24.1,26,46.3,42.2,65.7c7.5,8.9,20.3,11.1,30.3,5.3l29.1-16.7
		c16.2,13.8,34.8,24.6,54.9,31.7v33.6c0,11.7,8.5,21.7,20,23.6c25.1,4.3,50.8,4.3,75.9,0c11.4-2.1,19.7-12,19.7-23.6v-33.6
		c20.1-7.1,38.7-17.8,54.9-31.7l29.1,16.8c10,5.8,22.8,3.6,30.3-5.3c16.2-19.4,33.7-41.6,42.6-65.8
		C434.6,321.9,430.1,309.6,420,303.8z M268.7,308.1c-77,59.2-164.9-28.7-105.7-105.7C240,143.2,327.9,231.1,268.7,308.1L268.7,308.1
		z"/>
</g>
</svg>
