<?xml version="1.0" encoding="utf-8"?>
<!-- Generator: Adobe Illustrator 24.1.0, SVG Export Plug-In . SVG Version: 6.00 Build 0)  -->
<svg version="1.1" id="Layer_1" focusable="false" xmlns="http://www.w3.org/2000/svg" xmlns:xlink="http://www.w3.org/1999/xlink"
     x="0px" y="0px" viewBox="0 0 640 512" style="enable-background:new 0 0 640 512;" xml:space="preserve">
<style type="text/css">
	.st0{opacity:0.4;fill:#45438B;enable-background:new    ;}
	.st1{fill:#45438B;}
</style>
    <g>
	<path class="st0" d="M540.3,320H361.7c-6.3,0-12.5,1.9-17.8,5.4l-44,29.3c-13.2,8.8-7,29.3,8.9,29.3h233.4
		c15.9,0,30.8,10.9,33.4,26.6c2.9,17.5-8.9,34-26.4,36.9c-15.5,2.6-30.6-6.5-35.6-21.4c-2.1-6.3-8.6-10.1-15.2-10.1h-32.8
		c-8.9,0-16,7.3-16,16.1c0,1,0.1,2,0.3,3c10.9,51.9,61.8,85.2,113.7,74.3c51.5-10.8,84.7-60.9,74.6-112.5
		C629.4,351.3,586.7,320,540.3,320L540.3,320z M400,288h144c53.1-0.1,96.1-43.2,96-96.4c0-6.8-0.8-13.7-2.2-20.3
		c-7.6-36.2-36.9-65.5-73.1-73.1c-51.9-11.3-103.2,21.6-114.5,73.5c-0.1,0.7-0.3,1.3-0.4,2c-1.9,9.6,6.1,18.3,15.8,18.3h32.8
		c6.7,0,13.1-3.8,15.2-10.1c5.6-16.8,23.8-25.9,40.6-20.2c15,5,24.1,20.2,21.4,35.7c-2.6,15.7-17.4,26.6-33.4,26.6H400
		c-8.8,0-16,7.2-16,16v32C384,280.8,391.2,288,400,288z"/>
        <path class="st1" d="M291.9,324.1l-11.7,3.1c-6.5,1.7-13.2-2.1-14.9-8.6c0,0,0,0,0,0L250.4,263L200,233.9v56.9l40.4,40.2
		c4.7,4.7,4.7,12.3,0,17c0,0,0,0,0,0l-8.5,8.5c-4.7,4.7-12.3,4.7-17,0c0,0,0,0,0,0l-14.8-14.8V372c0,6.6-5.4,12-12,12h-24
		c-6.6,0-12-5.4-12-12v-30.3l-14.8,14.8c-4.7,4.7-12.3,4.7-17,0c0,0,0,0,0,0l-8.5-8.5c-4.7-4.7-4.7-12.3,0-17c0,0,0,0,0,0l40.2-40.2
		v-56.9L101.6,263l-14.9,55.6c-1.8,6.5-8.4,10.3-14.9,8.6l-11.7-3.1c-6.5-1.8-10.3-8.4-8.6-14.9l5.5-20.4l-26.6,15.3
		c-5.8,3.4-13.2,1.4-16.6-4.4c0,0,0,0,0,0l-12.1-21c-3.4-5.8-1.4-13.2,4.4-16.6c0,0,0,0,0,0l26.5-15.4l-20.4-5.5
		c-6.5-1.8-10.3-8.4-8.6-14.9l3.1-11.7c1.8-6.5,8.4-10.3,14.9-8.6l55.7,15l50.2-29l-50.2-29l-55.6,14.9c-6.5,1.7-13.2-2.1-14.9-8.6
		c0,0,0,0,0,0l-3.1-11.7c-1.7-6.5,2.1-13.2,8.6-14.9c0,0,0,0,0,0l20.4-5.5L6.1,121.9c-5.8-3.4-7.8-10.8-4.4-16.6c0,0,0,0,0,0
		l12.1-21c3.4-5.8,10.8-7.8,16.6-4.4c0,0,0,0,0,0l26.5,15.3l-5.5-20.4c-1.7-6.5,2.1-13.2,8.6-14.9c0,0,0,0,0,0l11.7-3.2
		c6.5-1.7,13.2,2.1,14.9,8.6c0,0,0,0,0,0l15,55.7l50.4,29.1V93.2L111.7,53c-4.7-4.7-4.7-12.3,0-17c0,0,0,0,0,0l8.5-8.5
		c4.7-4.7,12.3-4.7,17,0c0,0,0,0,0,0L152,42.3V12c0-6.6,5.4-12,12-12h24c6.6,0,12,5.4,12,12v30.3l14.7-14.8c4.7-4.7,12.3-4.7,17,0
		c0,0,0,0,0,0l8.5,8.5c4.7,4.7,4.7,12.3,0,17c0,0,0,0,0,0L200,93.2v56.9l50.4-29.1l14.9-55.6c1.8-6.5,8.4-10.3,14.9-8.6l11.7,3.1
		c6.5,1.8,10.3,8.4,8.6,14.9L295,95.2l26.6-15.3c5.8-3.4,13.2-1.4,16.6,4.4c0,0,0,0,0,0l12.1,21c3.4,5.8,1.4,13.2-4.4,16.6
		c0,0,0,0,0,0l-26.6,15.3l20.4,5.5c6.5,1.8,10.3,8.4,8.6,14.9l-3.1,11.7c-1.8,6.5-8.4,10.3-14.9,8.6L274.7,163l-50.2,29l50.2,29
		l55.6-14.9c6.5-1.7,13.2,2.1,14.9,8.6c0,0,0,0,0,0l3.1,11.7c1.7,6.5-2.1,13.2-8.6,14.9c0,0,0,0,0,0l-20.4,5.5l26.6,15.3
		c5.8,3.4,7.8,10.8,4.4,16.6c0,0,0,0,0,0l-12.1,21c-3.4,5.8-10.8,7.8-16.6,4.4c0,0,0,0,0,0L295,288.8l5.5,20.4
		c1.8,6.4-2,13.1-8.4,14.9C292,324.1,292,324.1,291.9,324.1L291.9,324.1z"/>
</g>
</svg>
